<svg width="94" height="95" viewBox="0 0 94 95" fill="none" xmlns="http://www.w3.org/2000/svg">
<path d="M49.0018 0H29.4048C28.3212 0 27.4396 0.890624 27.4396 1.98535C27.4396 3.08008 28.3212 3.9707 29.4048 3.9707H49.0018C52.2343 3.9707 54.8791 6.64258 54.8791 9.9082V49.4854C54.8791 52.751 52.2343 55.4229 49.0018 55.4229H9.80771C6.57521 55.4229 3.93043 52.751 3.93043 49.4854V33.6582C3.93043 32.5635 3.04884 31.6729 1.96522 31.6729C0.881593 31.6729 -1.121e-06 32.5635 -1.121e-06 33.6582V49.4854C-1.121e-06 54.9404 4.38959 59.375 9.78935 59.375H48.9651C54.3649 59.375 58.7544 54.9404 58.7544 49.4854V9.88965C58.7912 4.43457 54.4016 0 49.0018 0Z" transform="translate(35.2454 35.625)" fill="#DEDEDE"/>
<path d="M3.93043 2.26498e-06H1.96522C0.881593 2.26498e-06 1.121e-06 0.890624 1.121e-06 1.98535C1.121e-06 3.08008 0.881593 3.9707 1.96522 3.9707H3.93043C5.01406 3.9707 5.89565 3.08008 5.89565 1.98535C5.89565 0.890624 5.01406 2.26498e-06 3.93043 2.26498e-06Z" transform="translate(25.4559 55.4229)" fill="#DEDEDE"/>
<path d="M5.89773 0H4.17128C3.23459 0 2.31626 0.129883 1.4163 0.389648C0.369413 0.705078 -0.218315 1.7998 0.0755492 2.83887C0.351047 3.71094 1.12244 4.26758 1.9673 4.26758C2.15096 4.26758 2.33463 4.24902 2.51829 4.19336C3.05092 4.02637 3.60192 3.95215 4.17128 3.95215H5.89773C6.98136 3.95215 7.86295 3.06152 7.86295 1.9668C7.86295 0.87207 6.98136 0 5.89773 0Z" transform="translate(5.61804)" fill="#DEDEDE"/>
<path d="M3.91207 5.99317V1.98535C3.91207 0.890626 3.03047 -1.13249e-06 1.94685 -1.13249e-06C0.863226 -1.13249e-06 0 0.909181 0 1.98535V5.99317C0 7.08789 0.881592 7.97851 1.96522 7.97851C3.04884 7.97851 3.91207 7.08789 3.91207 5.99317Z" transform="translate(0 41.7295)" fill="#DEDEDE"/>
<path d="M1.96522 7.97852C3.04884 7.97852 3.93043 7.08789 3.93043 5.99316V1.98535C3.93043 0.890624 3.04884 -5.66244e-07 1.96522 -5.66244e-07C0.881592 -5.66244e-07 0 0.909179 0 1.98535V5.99316C0 7.08789 0.881592 7.97852 1.96522 7.97852Z" transform="translate(0 29.7246)" fill="#DEDEDE"/>
<path d="M1.96522 7.94205C3.04884 7.94205 3.93043 7.05142 3.93043 5.9567V4.13834C3.93043 3.5817 4.0039 3.04361 4.15083 2.52408C4.44469 1.46646 3.8386 0.371735 2.79171 0.0748605C1.74482 -0.222015 0.661194 0.39029 0.36733 1.44791C0.128566 2.31998 0 3.22916 0 4.13834V5.9567C0 7.05142 0.881592 7.94205 1.96522 7.94205Z" transform="translate(0 5.75128)" fill="#DEDEDE"/>
<path d="M1.96522 7.97852C3.04884 7.97852 3.93043 7.08789 3.93043 5.99316V1.98535C3.93043 0.890624 3.04884 0 1.96522 0C0.881592 0 0 0.90918 0 2.00391V6.01172C0 7.08789 0.881592 7.97852 1.96522 7.97852Z" transform="translate(0 17.7197)" fill="#DEDEDE"/>
<path d="M5.8796 2.08047C4.92454 1.80215 4.06131 1.28261 3.34502 0.577534C2.57363 -0.201762 1.34307 -0.183208 0.571678 0.577534C-0.199715 1.35683 -0.181349 2.6 0.571678 3.37929C1.74713 4.56679 3.21645 5.42031 4.79597 5.88418C4.97964 5.93984 5.1633 5.95839 5.3286 5.95839C6.17346 5.95839 6.96322 5.3832 7.20199 4.52969C7.51422 3.47207 6.92649 2.37734 5.8796 2.08047Z" transform="translate(2.31189 53.1198)" fill="#DEDEDE"/>
<path d="M3.9603 7.34072C4.14396 7.34072 4.32763 7.32216 4.51129 7.2665C5.55819 6.95107 6.14591 5.85634 5.85205 4.81728C5.39288 3.22158 4.5113 1.75576 3.33584 0.568258C2.56445 -0.192484 1.33389 -0.192484 0.562496 0.586813C-0.190531 1.36611 -0.190529 2.60927 0.580864 3.38857C1.27879 4.09365 1.81142 4.98427 2.08691 5.93056C2.32568 6.76552 3.11544 7.34072 3.9603 7.34072Z" transform="translate(52.535 2.30774)" fill="#DEDEDE"/>
<path d="M5.93238 0H1.96522C0.881592 0 0 0.890625 0 1.98535C0 3.08008 0.881592 3.9707 1.96522 3.9707H5.93238C7.016 3.9707 7.8976 3.08008 7.8976 1.98535C7.8976 0.890625 7.016 0 5.93238 0Z" transform="translate(41.2328)" fill="#DEDEDE"/>
<path d="M5.91401 2.26498e-06H1.96522C0.881592 2.26498e-06 0 0.890624 0 1.98535C0 3.08008 0.881592 3.95215 1.96522 3.95215H5.93238C7.01601 3.95215 7.8976 3.06152 7.8976 1.96679C7.8976 0.872068 6.99764 2.26498e-06 5.91401 2.26498e-06Z" transform="translate(13.5912 55.4229)" fill="#DEDEDE"/>
<path d="M1.96521 -2.83122e-07C0.88159 -2.83122e-07 1.121e-06 0.890625 1.121e-06 1.98535V5.99316C1.121e-06 7.08789 0.88159 7.97852 1.96521 7.97852C3.04884 7.97852 3.93043 7.08789 3.93043 5.99316V1.98535C3.93043 0.890625 3.04884 -2.83122e-07 1.96521 -2.83122e-07Z" transform="translate(54.8424 13.6562)" fill="#DEDEDE"/>
<path d="M5.93238 0H1.96522C0.881592 0 5.60501e-07 0.890625 5.60501e-07 1.98535C5.60501e-07 3.08008 0.881592 3.9707 1.96522 3.9707H5.91401C6.99764 3.9707 7.87923 3.08008 7.87923 1.98535C7.87923 0.890625 7.01601 0 5.93238 0Z" transform="translate(29.3496)" fill="#DEDEDE"/>
<path d="M5.91401 0H1.94685C0.881593 0 -5.60501e-07 0.890625 -5.60501e-07 1.98535C-5.60501e-07 3.08008 0.881593 3.9707 1.96522 3.9707H5.93238C7.016 3.9707 7.8976 3.08008 7.8976 1.98535C7.8976 0.890625 6.99764 0 5.91401 0Z" transform="translate(17.4849)" fill="#DEDEDE"/>
<path d="M1.96521 -5.66244e-07C0.88159 -5.66244e-07 1.121e-06 0.890624 1.121e-06 1.98535V3.95215C1.121e-06 5.04688 0.88159 5.9375 1.96521 5.9375C3.04884 5.9375 3.93043 5.04688 3.93043 3.95215V1.9668C3.93043 0.872071 3.04884 -5.66244e-07 1.96521 -5.66244e-07Z" transform="translate(54.8424 25.7354)" fill="#DEDEDE"/>
<path d="M36.4759 7.95068L30.3966 1.80908C28.0089 -0.603028 24.1336 -0.603028 21.7459 1.80908C21.0296 2.53271 20.5338 3.38623 20.2399 4.29541C18.1094 3.53467 15.5564 4.10986 13.9034 5.76123C13.0035 6.67041 12.4525 7.78369 12.2321 8.95264C10.3587 8.69287 8.41186 9.32373 7.05274 10.6968C5.74872 12.0142 5.16099 13.7769 5.27119 15.5024C3.9488 15.688 2.73661 16.2817 1.78155 17.2651C0.624462 18.4341 -1.121e-06 19.9927 -1.121e-06 21.644C-1.121e-06 23.2954 0.642829 24.854 1.78155 26.0229L3.54474 27.8042V34.9106C3.54474 40.3657 7.93433 44.8003 13.3341 44.8003H21.3602C33.1332 44.8003 42.7205 35.1147 42.7205 23.2212C42.7205 17.4507 40.4981 12.0327 36.4759 7.95068ZM21.3602 40.8296H13.3341C10.1016 40.8296 7.4568 38.1577 7.4568 34.8921V31.7563L11.9566 36.3022C12.728 37.0815 13.9585 37.0815 14.7299 36.3022C15.1156 35.9126 15.2993 35.4116 15.2993 34.8921C15.2993 34.3726 15.1156 33.8716 14.7299 33.4819L4.55489 23.2026C4.13246 22.7944 3.91207 22.2192 3.91207 21.644C3.91207 21.0688 4.13246 20.4937 4.55489 20.0854C5.38139 19.2505 6.83234 19.2505 7.65883 20.0854L11.9566 24.4272C12.728 25.2065 13.9585 25.2065 14.7299 24.4272C15.1156 24.0376 15.2993 23.5366 15.2993 23.0171C15.2993 22.4976 15.1156 21.9966 14.7299 21.6255L9.82608 16.6714C8.96285 15.7993 8.96285 14.4077 9.82608 13.5356C10.6526 12.7007 12.1035 12.7007 12.93 13.5356L15.8687 16.5044C16.6401 17.2837 17.8706 17.2837 18.642 16.5044C19.0277 16.1147 19.2114 15.6138 19.2114 15.0942C19.2114 14.5747 19.0277 14.0737 18.642 13.7026L16.6768 11.7173C15.8136 10.8452 15.8136 9.45361 16.6768 8.58154C17.5033 7.74658 18.9542 7.74658 19.7807 8.58154L21.7459 10.5669C22.5173 11.3462 23.7479 11.3462 24.5193 10.5669C24.905 10.1772 25.0886 9.67627 25.0886 9.15674C25.0886 8.63721 24.905 8.13623 24.5193 7.74658C24.0969 7.33838 23.8765 6.78174 23.8765 6.18799C23.8765 5.59424 24.1152 5.0376 24.5193 4.6294C25.3825 3.75733 26.76 3.75733 27.6232 4.6294L33.7025 10.771C36.9901 14.0923 38.8084 18.5269 38.8084 23.2212C38.8084 32.9253 30.9843 40.8296 21.3602 40.8296Z" transform="translate(27.8069 26.4683)" fill="#DEDEDE"/>
</svg>
