<?xml version="1.0" standalone="no"?>
<!DOCTYPE svg PUBLIC "-//W3C//DTD SVG 20010904//EN"
 "http://www.w3.org/TR/2001/REC-SVG-20010904/DTD/svg10.dtd">
<svg version="1.0" xmlns="http://www.w3.org/2000/svg"
 width="2000.000000pt" height="2000.000000pt" viewBox="0 0 2000.000000 2000.000000"
 preserveAspectRatio="xMidYMid meet">
<metadata>
Created by potrace 1.11, written by Peter Selinger 2001-2013
</metadata>
<g transform="translate(0.000000,2000.000000) scale(0.100000,-0.100000)"
fill="#000000" stroke="none">
<path d="M1258 16259 c-26 -28 -23 -86 4 -109 21 -16 22 -21 10 -52 -18 -52
-16 -57 22 -51 l33 5 5 -59 c3 -44 10 -65 26 -81 14 -14 22 -34 22 -57 0 -31
3 -35 25 -35 21 0 25 -5 25 -29 0 -25 6 -31 35 -41 23 -8 35 -18 35 -30 0 -24
-18 -36 -33 -21 -6 6 -17 11 -25 11 -7 0 -20 7 -29 15 -8 9 -23 15 -32 13 -30
-6 -20 -33 24 -68 25 -20 44 -44 44 -56 1 -11 6 -25 11 -30 8 -8 6 -15 -5 -24
-24 -20 -18 -47 18 -71 50 -34 97 -89 97 -114 0 -13 12 -37 26 -55 21 -24 27
-42 28 -88 0 -31 -2 -69 -7 -84 -7 -25 -5 -28 28 -34 25 -4 37 -13 41 -29 3
-13 23 -39 45 -58 26 -24 39 -44 39 -61 0 -14 -4 -26 -10 -26 -17 0 -11 -52 7
-65 15 -11 15 -13 -5 -24 -26 -14 -30 -62 -7 -81 8 -7 15 -21 15 -31 0 -24 27
-25 33 -1 4 14 5 14 6 -3 0 -11 9 -25 20 -32 12 -8 17 -19 14 -36 -3 -13 3
-39 12 -57 15 -29 15 -35 -1 -86 -9 -30 -21 -54 -25 -54 -5 0 -9 -13 -9 -30 0
-27 3 -30 33 -30 57 0 62 -14 54 -135 -2 -39 -1 -40 30 -40 35 0 73 -26 73
-50 0 -8 9 -20 20 -27 11 -7 20 -18 20 -23 0 -6 24 -25 53 -43 28 -17 64 -47
79 -66 23 -28 36 -35 80 -41 61 -8 84 -25 93 -66 4 -16 33 -58 65 -93 32 -35
60 -73 63 -83 3 -10 8 -30 11 -44 4 -20 17 -30 50 -43 39 -15 44 -21 50 -55 5
-32 12 -41 35 -49 22 -8 32 -20 38 -43 7 -25 17 -35 43 -44 26 -9 36 -18 38
-36 1 -13 12 -46 25 -73 l21 -48 -22 -18 c-12 -10 -22 -25 -22 -33 0 -8 -12
-22 -26 -31 -34 -23 -31 -72 4 -69 17 2 22 -2 22 -21 0 -16 -7 -27 -20 -31
-14 -4 -20 -15 -20 -36 0 -25 -4 -29 -29 -29 -19 0 -35 -8 -44 -21 -14 -19
-17 -20 -45 -5 -17 9 -36 16 -42 16 -13 0 16 -54 42 -77 15 -14 19 -14 33 1 9
9 23 16 32 16 16 0 15 -14 -3 -77 -5 -19 -2 -23 15 -23 12 0 21 -6 21 -15 0
-18 12 -19 29 -2 10 10 14 9 22 -5 6 -10 17 -18 24 -18 8 0 15 -4 15 -10 0 -5
-13 -10 -29 -10 -17 0 -33 -4 -36 -10 -12 -19 -32 -10 -46 23 -10 22 -25 35
-49 43 -27 9 -36 18 -40 39 -7 41 -24 41 -57 1 -15 -20 -36 -36 -46 -36 -10 0
-49 18 -87 41 -53 31 -85 43 -141 51 -40 5 -85 16 -101 24 -30 15 -78 19 -78
6 0 -13 32 -39 56 -46 29 -9 62 -46 66 -76 2 -21 9 -25 43 -28 49 -4 65 -17
65 -52 0 -36 32 -76 81 -101 51 -26 79 -71 79 -130 0 -62 17 -82 76 -88 39 -5
51 -11 59 -29 8 -20 15 -22 43 -17 27 5 32 3 32 -13 0 -11 11 -27 25 -36 14
-9 25 -25 25 -36 0 -17 8 -22 40 -22 3 -1 24 2 48 6 l42 6 0 -39 c0 -30 5 -42
23 -54 13 -9 39 -39 57 -67 27 -43 37 -51 59 -48 17 2 30 13 39 31 7 15 20 27
29 27 9 0 25 7 35 17 17 15 18 14 18 -20 0 -32 3 -37 23 -37 12 0 32 -3 45 -6
18 -5 24 -2 29 14 3 13 10 19 19 15 8 -3 20 0 28 6 24 20 28 -18 5 -50 -11
-16 -19 -39 -17 -52 3 -19 8 -22 41 -19 33 3 37 1 37 -21 0 -16 26 -50 85
-111 47 -48 88 -98 91 -111 9 -37 27 -47 58 -35 41 15 81 12 99 -8 9 -10 26
-40 38 -66 17 -39 18 -50 8 -57 -10 -6 -9 -12 6 -28 10 -12 25 -20 33 -19 10
2 18 -8 22 -28 4 -17 23 -58 43 -90 l37 -59 0 -120 c0 -86 -4 -126 -14 -140
-7 -11 -22 -46 -31 -77 -16 -50 -17 -62 -5 -98 10 -31 11 -46 1 -66 -16 -35
-4 -169 16 -186 12 -10 17 -9 25 6 9 17 11 16 22 -5 6 -13 22 -25 34 -27 18
-3 21 -8 16 -27 -4 -18 0 -27 20 -40 14 -10 26 -26 26 -36 0 -11 5 -19 10 -19
6 0 10 5 10 12 0 6 3 8 6 5 4 -4 -1 -18 -11 -33 -11 -17 -14 -29 -7 -36 14
-14 32 -1 32 24 0 21 1 21 20 3 16 -14 23 -16 32 -7 20 20 38 14 38 -12 0 -38
79 -127 149 -166 94 -54 143 -89 233 -167 119 -103 138 -123 138 -144 0 -43
116 -127 206 -149 46 -11 74 -50 95 -134 7 -27 20 -57 29 -66 19 -19 34 -138
24 -200 -5 -30 -2 -45 15 -68 11 -17 21 -39 21 -49 0 -43 47 -55 103 -27 18 9
61 38 97 64 36 26 73 50 82 53 9 3 25 19 35 34 9 15 37 52 60 81 50 63 52 80
18 177 -19 54 -35 79 -69 110 -30 26 -48 53 -55 78 -6 23 -29 59 -55 87 -25
27 -46 55 -46 62 0 8 -20 34 -45 58 -25 24 -45 50 -45 57 0 7 -19 27 -42 44
-45 32 -67 62 -68 92 0 14 -9 17 -50 17 -27 0 -50 -3 -50 -6 0 -3 9 -17 19
-31 21 -26 18 -53 -5 -53 -9 0 -14 -11 -14 -31 0 -26 3 -31 20 -26 25 7 26 -5
0 -28 -16 -15 -22 -15 -35 -5 -8 7 -15 25 -15 40 0 20 -15 43 -54 83 -36 37
-68 84 -96 140 -22 47 -46 87 -53 90 -7 2 -2 24 16 66 15 34 27 70 28 79 1 11
3 9 7 -6 9 -32 25 -32 40 1 7 15 22 32 33 37 20 11 23 37 13 102 -5 29 -13 39
-34 47 -16 5 -38 19 -50 31 -46 46 -69 -16 -26 -68 15 -16 26 -33 26 -38 0 -4
6 -15 14 -23 12 -14 12 -19 1 -35 -14 -18 -15 -18 -25 10 -6 16 -40 72 -75
124 -62 92 -84 149 -85 215 0 61 -21 109 -66 150 -26 24 -50 58 -59 84 -18 53
-18 52 0 45 9 -4 15 0 15 10 0 9 8 16 20 16 10 0 24 9 30 20 6 11 8 20 4 20
-3 0 1 11 10 26 10 14 16 39 14 57 -2 26 -8 33 -28 35 -21 2 -27 -4 -41 -40
-9 -24 -22 -63 -29 -88 l-12 -45 -24 65 c-30 81 -30 87 1 132 29 42 31 58 10
58 -21 0 -32 27 -60 147 -14 59 -34 120 -44 134 -11 14 -35 57 -54 96 -38 74
-134 173 -169 173 -29 0 -24 -54 7 -74 22 -14 24 -21 18 -65 l-5 -48 43 -14
c33 -10 44 -19 44 -34 0 -14 -8 -21 -27 -23 -23 -3 -33 5 -60 42 -17 25 -40
48 -50 52 -25 7 -33 50 -19 91 14 37 8 66 -20 102 -11 13 -19 35 -19 48 0 15
-18 44 -51 78 -47 50 -53 62 -76 152 -28 111 -44 143 -74 143 -28 0 -58 17
-96 53 -38 36 -47 58 -73 196 -11 57 -31 128 -45 159 -15 32 -29 80 -31 107
-9 86 -12 93 -59 120 -70 41 -91 74 -99 148 -8 72 -36 127 -65 127 -11 0 -21
9 -25 23 -8 35 -45 77 -67 77 -10 0 -19 -5 -19 -12 0 -8 -6 -6 -17 5 -16 16
-15 18 10 45 32 33 36 72 9 72 -27 0 -52 32 -52 66 0 20 -12 44 -33 70 -18 21
-68 85 -110 140 -42 56 -94 113 -116 128 -21 15 -49 38 -61 51 -16 18 -34 25
-59 25 -58 0 -63 8 -56 81 l6 64 -25 -30 c-25 -29 -26 -29 -26 -7 0 12 -13 36
-30 54 -36 38 -37 41 -5 67 l26 20 -28 13 -28 13 -7 274 c-4 151 -10 276 -13
279 -3 3 -13 -2 -24 -12 -17 -16 -19 -15 -31 14 -15 36 -8 257 9 302 18 48 94
138 117 138 12 0 27 7 34 15 18 22 37 18 56 -10 9 -14 39 -44 68 -66 40 -32
56 -39 79 -35 22 5 29 1 36 -17 12 -30 56 -59 84 -55 17 2 27 17 42 62 11 33
24 60 29 60 11 1 75 -46 122 -91 27 -24 34 -39 34 -68 0 -77 34 -99 184 -119
135 -17 156 -30 156 -94 0 -26 -9 -79 -20 -117 -11 -39 -23 -101 -26 -140 -6
-68 -5 -71 31 -125 58 -85 67 -109 76 -187 12 -105 70 -269 149 -418 69 -132
91 -197 71 -209 -6 -4 -11 -25 -11 -46 l0 -39 63 -3 62 -3 0 -90 c0 -84 2 -94
34 -150 58 -101 80 -125 113 -125 32 0 31 3 12 -58 -4 -13 5 -25 33 -42 30
-20 40 -35 50 -73 15 -62 23 -70 88 -97 56 -23 65 -32 167 -174 21 -28 50 -62
65 -74 32 -27 141 -82 162 -82 8 0 23 -8 33 -17 14 -12 21 -14 30 -5 8 8 5 14
-14 21 -14 5 -28 17 -31 25 -9 23 0 20 42 -12 20 -16 59 -42 86 -57 28 -16 52
-30 54 -31 2 -2 -6 -15 -18 -30 -26 -33 -26 -46 -2 -68 12 -11 16 -25 13 -42
-2 -13 3 -44 11 -67 9 -23 21 -70 26 -105 5 -34 13 -67 16 -72 11 -17 138
-116 172 -134 18 -9 47 -15 65 -14 31 3 35 0 64 -61 17 -35 45 -76 62 -90 31
-25 32 -28 20 -59 -16 -41 -6 -59 51 -90 48 -27 67 -24 81 14 10 25 12 25 33
11 12 -8 21 -23 19 -32 -3 -14 1 -16 17 -12 16 4 28 -3 45 -26 34 -45 86 -153
86 -177 0 -13 7 -20 19 -20 41 0 49 -10 44 -49 -3 -24 1 -49 11 -69 13 -26 14
-32 3 -32 -24 0 -47 35 -47 71 0 36 -14 59 -37 59 -7 0 -13 -11 -13 -24 0 -14
-10 -30 -25 -40 -14 -9 -29 -33 -35 -56 -8 -31 -17 -41 -38 -46 -40 -10 -62
-33 -62 -67 0 -25 3 -29 23 -25 20 4 23 1 19 -18 -2 -12 -16 -27 -30 -33 l-26
-12 30 -25 c27 -22 28 -25 12 -38 -10 -7 -18 -20 -18 -29 0 -20 36 -40 61 -34
10 3 23 -1 29 -8 6 -7 23 -16 37 -20 38 -9 223 -121 240 -145 8 -11 21 -20 29
-20 18 0 17 2 -1 47 -16 38 -20 73 -7 73 18 0 52 -69 52 -106 0 -48 14 -64 55
-64 34 0 104 -30 122 -51 6 -8 16 -33 22 -55 10 -38 26 -54 52 -54 14 0 11 22
-8 42 -12 14 -14 23 -6 40 10 21 13 17 42 -47 17 -38 36 -77 41 -86 5 -9 6
-26 3 -37 -10 -39 87 -167 167 -222 46 -31 64 -51 83 -92 27 -60 72 -118 92
-118 19 0 27 28 20 75 -5 30 -3 44 9 54 12 10 17 7 32 -21 10 -18 29 -67 44
-108 l25 -75 58 -20 c65 -23 78 -37 101 -118 18 -62 45 -97 75 -97 27 0 36
-15 92 -141 58 -133 89 -176 150 -206 52 -27 79 -57 79 -88 0 -15 26 -49 78
-102 43 -43 89 -100 102 -128 19 -39 35 -55 67 -70 28 -13 45 -29 50 -44 3
-14 18 -43 33 -65 58 -87 65 -103 70 -151 5 -50 5 -50 40 -50 40 0 40 -4 25
163 -8 95 -3 109 28 74 19 -21 21 -66 7 -163 -7 -50 -6 -85 5 -144 19 -97 24
-105 75 -124 47 -17 60 -35 34 -45 -19 -7 -44 10 -44 30 0 18 -10 18 -36 -1
-20 -13 -21 -13 -16 11 2 14 0 35 -6 47 -6 12 -16 46 -22 75 -8 32 -17 52 -26
52 -19 0 -18 -46 1 -101 11 -31 13 -51 6 -70 -18 -51 51 -208 109 -249 16 -11
43 -44 60 -73 18 -28 45 -65 60 -82 36 -38 38 -48 22 -115 -11 -46 -11 -65 1
-115 17 -73 10 -98 -38 -126 -42 -25 -125 -123 -125 -148 0 -14 13 -20 68 -27
l67 -9 3 -47 c4 -65 -21 -91 -86 -88 -86 4 -121 0 -134 -15 -7 -9 -20 -24 -29
-33 -15 -15 -15 -24 -2 -84 7 -37 23 -89 35 -115 12 -27 33 -82 48 -123 26
-73 29 -76 93 -115 111 -68 141 -97 181 -179 57 -116 115 -159 314 -236 98
-37 166 -80 217 -135 34 -36 49 -45 100 -54 97 -19 112 -28 128 -75 11 -33 22
-45 58 -62 57 -28 65 -37 119 -148 43 -87 48 -92 105 -123 87 -47 189 -85 360
-133 97 -27 198 -64 285 -105 74 -35 144 -66 156 -69 13 -4 45 5 85 24 35 16
75 30 89 30 45 0 87 -37 159 -138 81 -115 111 -143 195 -181 34 -15 113 -68
176 -118 139 -108 140 -109 215 -117 99 -12 171 -34 370 -113 211 -84 245
-100 323 -151 50 -34 62 -37 205 -54 84 -10 170 -20 191 -22 21 -2 43 -10 47
-19 6 -9 32 -17 76 -22 87 -9 130 -30 228 -116 89 -77 134 -98 357 -164 120
-35 132 -42 195 -96 63 -55 113 -76 113 -48 0 8 44 10 143 7 140 -4 144 -4
252 -47 241 -95 311 -102 500 -51 140 38 182 53 212 81 12 12 79 40 150 63
147 49 186 67 266 127 41 31 57 49 57 66 0 35 59 58 125 48 83 -13 151 -8 133
10 -3 3 -29 9 -57 14 -29 5 -57 13 -64 20 -6 6 -19 11 -30 11 -10 0 -15 5 -12
11 4 6 26 9 49 7 38 -3 41 -1 41 22 0 14 6 25 13 24 6 -1 22 -2 33 -2 19 -2
21 -7 16 -36 -7 -42 14 -66 38 -46 8 7 15 18 15 25 0 14 53 45 77 45 22 0 14
-35 -15 -63 -19 -18 -39 -27 -60 -27 -18 0 -32 -4 -32 -9 0 -18 43 -23 129
-17 90 7 112 4 271 -48 41 -14 96 -30 122 -36 25 -7 68 -29 95 -49 27 -20 104
-65 171 -101 69 -36 150 -88 185 -118 34 -30 143 -115 242 -190 104 -79 214
-172 260 -221 148 -155 257 -261 271 -261 25 0 42 45 53 140 6 52 18 117 26
144 26 85 21 109 -30 151 l-46 37 152 296 c84 164 156 299 160 303 5 3 143 11
306 17 164 7 348 15 409 19 l111 6 -14 59 c-14 61 -5 128 18 128 5 0 9 11 9
25 0 16 -6 25 -15 25 -9 0 -27 7 -40 16 -16 11 -36 14 -54 11 -26 -5 -32 -2
-50 28 -11 19 -25 35 -30 35 -5 0 -17 22 -26 49 -23 71 -73 111 -139 111 -26
0 -36 5 -41 20 -4 13 -15 20 -30 20 -27 0 -45 24 -38 51 5 16 0 19 -30 19 -29
0 -37 5 -48 29 -8 17 -24 33 -36 36 -13 3 -23 12 -23 20 0 8 -12 18 -26 21
-14 4 -36 17 -48 29 l-23 23 120 7 120 7 -6 203 -6 203 82 6 c45 3 177 8 292
11 187 5 513 23 742 41 54 4 80 10 78 18 -2 6 -6 33 -9 59 -6 47 -5 48 29 63
19 8 59 14 89 14 39 0 60 5 72 17 10 10 27 23 38 28 31 15 58 81 64 154 5 62
7 67 57 118 42 41 60 53 84 53 33 0 98 41 131 83 14 18 18 34 14 54 -5 25 -2
31 21 41 27 13 29 25 9 76 -10 26 12 18 40 -15 31 -37 33 -72 6 -106 -12 -16
-20 -41 -20 -66 0 -33 6 -45 36 -71 100 -86 107 -95 100 -127 -5 -28 -4 -30
22 -27 25 3 27 6 30 58 1 30 9 104 17 163 8 59 15 126 15 148 0 24 8 51 20 67
11 15 26 54 35 87 20 79 41 242 32 252 -5 4 -17 2 -27 -5 -20 -12 -60 -17 -60
-7 0 3 7 21 15 40 11 28 26 40 74 61 33 14 62 31 64 38 2 6 2 28 -1 49 -3 31
-8 37 -28 37 -44 0 -93 -27 -100 -54 -6 -27 -18 -33 -29 -17 -3 5 -1 12 5 16
17 10 11 32 -10 38 -40 10 -16 81 35 103 19 8 35 20 35 27 0 6 9 23 20 37 23
29 25 84 5 120 -36 63 -7 162 76 256 34 38 74 94 89 124 16 30 51 77 79 105
36 35 53 59 57 85 3 19 14 74 25 121 29 132 27 152 -31 243 -57 91 -81 119
-128 148 l-34 21 -24 -31 c-13 -17 -46 -39 -72 -49 -51 -20 -101 -21 -552 -12
-252 4 -269 1 -360 -66 -73 -53 -182 -100 -315 -135 -510 -134 -496 -129 -592
-211 -34 -30 -77 -65 -94 -78 -18 -14 -41 -45 -51 -69 -32 -71 -58 -218 -58
-323 0 -84 4 -104 27 -155 41 -90 37 -129 -24 -259 -55 -118 -67 -156 -78
-250 -4 -33 -14 -76 -22 -97 -19 -47 -309 -322 -359 -340 -26 -9 -34 -17 -32
-33 2 -16 10 -20 39 -18 29 2 38 -2 42 -17 3 -11 12 -20 21 -20 18 0 21 -16 5
-26 -6 -3 -9 -17 -6 -31 7 -37 -52 -98 -86 -89 -28 7 -37 0 -68 -53 -21 -34
-37 -37 -92 -16 -13 6 -21 -1 -32 -29 -14 -33 -19 -36 -55 -36 -29 0 -40 4
-40 15 0 8 9 15 20 15 21 0 27 15 10 25 -5 3 -10 15 -10 27 0 14 -5 18 -16 14
-9 -4 -23 -1 -31 5 -10 9 -19 9 -38 -1 -20 -11 -28 -10 -49 4 -30 19 -63 21
-69 4 -2 -7 -6 0 -9 15 l-5 28 61 -2 c65 -2 120 14 114 33 -5 13 -92 40 -130
39 -15 0 -44 -9 -65 -19 -21 -11 -70 -22 -110 -26 -85 -7 -231 -70 -303 -131
-48 -40 -97 -65 -129 -65 -19 0 -31 -18 -31 -50 0 -25 -22 -41 -40 -29 -13 8
-11 12 8 28 12 11 22 21 22 23 0 6 -79 11 -173 11 -68 -1 -83 -4 -117 -28 -21
-15 -73 -36 -116 -47 -83 -21 -134 -43 -134 -57 0 -5 -13 -12 -29 -16 -16 -3
-51 -20 -77 -37 -39 -25 -62 -32 -114 -35 -36 -2 -75 -9 -86 -15 -36 -17 -75
9 -109 75 -16 32 -44 69 -62 83 -17 13 -42 41 -54 62 -29 48 -36 52 -84 52
-34 0 -45 6 -81 45 l-41 45 -205 0 c-183 0 -208 2 -229 18 -13 10 -39 24 -57
32 -56 22 -83 48 -76 75 3 12 -1 36 -9 51 -21 41 -135 147 -184 172 -46 24
-60 53 -103 207 -48 174 -127 292 -341 510 -144 147 -211 239 -281 382 -22 46
-43 85 -48 88 -5 3 -12 20 -15 38 -4 17 -13 44 -21 58 -13 25 -12 26 13 21 27
-5 27 -4 12 43 -1 6 1 48 5 95 9 101 -1 134 -45 158 -18 9 -47 30 -66 46 -44
37 -138 197 -155 261 -7 28 -20 55 -28 62 -13 11 -13 12 3 13 27 0 22 58 -8
86 -23 22 -25 29 -25 122 0 64 6 115 15 143 41 116 53 369 18 369 -11 0 -13 3
-5 13 18 21 19 219 2 253 -20 39 -35 54 -54 54 -9 0 -16 7 -16 15 0 8 6 12 14
9 8 -3 17 -1 21 5 3 6 17 8 32 5 25 -7 26 -6 20 26 -4 18 -7 43 -7 56 0 17 -6
24 -20 24 -13 0 -20 7 -20 20 0 11 5 20 10 20 6 0 10 14 10 30 0 17 5 30 10
30 12 0 13 52 2 65 -9 10 -32 127 -32 159 0 9 7 16 16 16 13 0 15 -7 9 -38 -3
-21 -1 -58 5 -82 6 -25 14 -56 16 -70 3 -14 7 -35 10 -48 2 -13 9 -20 14 -17
14 9 12 54 -5 112 -13 45 -13 53 1 82 9 18 14 46 12 63 -3 17 1 52 8 76 8 25
14 56 14 70 0 21 -4 24 -25 20 -14 -3 -28 -1 -31 3 -3 5 -1 9 5 9 5 0 17 7 26
16 14 15 14 17 -2 29 -13 10 -20 10 -25 2 -5 -7 -8 -3 -8 11 0 16 7 26 20 29
13 3 20 14 20 29 0 19 -5 24 -25 24 -30 0 -32 16 -5 50 27 35 25 40 -16 40
-21 0 -33 4 -29 10 3 6 17 10 31 10 15 0 24 6 24 15 0 8 5 15 11 15 6 0 9 8 7
18 -2 9 -12 17 -24 17 -12 1 -28 8 -38 17 -20 21 -21 29 -1 22 11 -5 15 1 15
20 0 20 5 26 21 26 12 0 23 -8 26 -20 3 -11 9 -20 14 -20 5 0 9 -7 9 -15 0 -8
7 -15 15 -15 8 0 15 7 15 15 0 8 9 15 20 15 16 0 20 -7 20 -37 0 -21 -7 -51
-15 -67 -8 -15 -15 -38 -15 -50 0 -11 -9 -34 -20 -51 -15 -22 -20 -47 -20 -93
0 -74 17 -76 18 -3 1 43 9 61 55 128 55 82 95 183 104 268 4 33 22 81 53 140
48 89 54 115 51 209 l-1 49 -32 -7 c-18 -3 -45 -15 -60 -26 -15 -11 -37 -20
-50 -20 -13 0 -32 -7 -42 -15 -30 -23 -43 -19 -85 24 -49 50 -77 55 -258 48
l-143 -6 -46 40 c-31 26 -55 39 -75 39 -17 0 -32 6 -35 15 -9 22 -147 95 -181
95 -34 0 -136 33 -170 55 -12 8 -30 15 -40 15 -25 1 -79 52 -87 84 -4 18 -13
26 -29 26 -16 0 -18 3 -8 9 17 11 7 73 -14 91 -12 10 -18 10 -31 -1 -15 -12
-16 -11 -10 9 4 13 3 28 -2 35 -5 7 -12 23 -15 37 -3 14 -17 73 -31 132 -14
58 -30 145 -37 193 -15 104 -27 122 -134 196 -77 53 -115 106 -115 162 0 17
-33 69 -100 159 -56 73 -117 167 -137 208 -19 41 -39 77 -44 78 -5 2 -7 8 -3
13 3 5 -2 12 -10 15 -9 3 -14 10 -11 14 3 5 -10 24 -29 44 -18 20 -31 36 -29
36 2 0 -11 19 -30 43 -48 58 -74 113 -82 172 -6 44 -13 56 -64 105 -32 30 -66
68 -75 83 -10 15 -23 27 -28 27 -5 0 -28 9 -50 20 -23 11 -50 17 -60 14 -11
-3 -25 0 -33 6 -9 7 -30 9 -59 5 -52 -8 -55 -3 -29 52 13 27 13 37 4 43 -7 4
-11 18 -9 31 3 21 6 18 25 -22 17 -35 29 -48 50 -52 15 -3 30 -3 32 -1 6 6
-43 76 -80 113 -51 50 -88 62 -182 60 -60 -2 -90 2 -114 14 -24 13 -59 17
-147 17 -66 0 -117 4 -121 10 -12 19 -54 10 -87 -19 -18 -15 -63 -38 -99 -50
-65 -21 -67 -23 -77 -64 -9 -33 -18 -45 -40 -53 -54 -21 -76 -99 -59 -210 l7
-51 -34 -6 c-52 -8 -84 -35 -98 -79 -23 -76 -108 -75 -194 3 -35 32 -66 50
-91 55 -55 10 -73 21 -118 70 -34 37 -49 46 -95 54 -36 7 -67 21 -90 40 -19
17 -57 43 -85 58 -71 38 -154 127 -194 205 -28 56 -35 81 -41 164 -7 101 -39
193 -67 193 -17 0 -49 65 -58 117 -4 27 -18 53 -39 75 -18 18 -43 55 -56 82
-31 62 -77 99 -161 132 -57 21 -79 37 -142 104 -41 43 -93 88 -115 99 -26 13
-60 47 -98 98 -92 123 -231 268 -298 311 l-61 40 -465 17 c-256 9 -476 16
-490 14 -24 -4 -25 -8 -41 -152 -10 -82 -20 -152 -24 -155 -3 -3 -371 14 -818
39 l-812 45 -1045 490 c-978 459 -1045 493 -1048 517 -2 20 1 27 13 27 13 0
15 10 13 53 l-3 52 -690 2 c-669 1 -691 1 -707 -18z m1271 -628 l25 -32 -45 3
c-42 3 -44 4 -47 38 -2 19 -12 43 -23 53 -10 10 -19 23 -19 29 0 14 77 -50
109 -91z m121 -40 c0 -11 -58 -61 -70 -61 -4 0 -6 9 -3 19 3 12 11 17 20 14 9
-4 16 2 20 16 5 20 33 30 33 12z m607 -3373 c-2 -13 -4 -5 -4 17 -1 22 1 32 4
23 2 -10 2 -28 0 -40z m9559 -1249 c3 -6 2 -15 -4 -21 -6 -6 -11 -2 -15 11 -5
22 7 29 19 10z m-166 -263 c0 -3 -4 -8 -10 -11 -5 -3 -10 -1 -10 4 0 6 5 11
10 11 6 0 10 -2 10 -4z m22 -236 c-6 -16 -10 -19 -14 -9 -3 8 -1 25 5 39 13
32 22 4 9 -30z m-70 -84 c6 -14 8 -32 4 -42 -6 -16 -8 -16 -24 2 -11 11 -16
28 -14 41 6 30 20 29 34 -1z m148 -1801 c0 -38 32 -92 66 -110 19 -10 40 -28
46 -39 6 -12 17 -25 24 -29 10 -6 14 -32 13 -95 l0 -87 -19 40 c-10 22 -21 53
-25 68 -3 17 -15 31 -30 37 -14 5 -25 11 -25 12 0 2 -14 41 -31 88 -39 110
-44 130 -30 130 6 0 11 -7 11 -15z"/>
<path d="M12830 8405 c0 -8 2 -15 4 -15 2 0 11 -3 20 -6 10 -4 16 -1 16 9 0 8
-7 18 -16 21 -22 9 -24 8 -24 -9z"/>
<path d="M257 14029 c-32 -49 -33 -59 -7 -82 13 -11 20 -29 20 -51 0 -19 9
-44 19 -57 20 -24 20 -24 35 -4 8 11 16 28 16 38 0 9 4 17 9 17 5 0 12 18 16
41 6 33 3 45 -13 62 -11 12 -22 34 -26 50 -9 40 -38 34 -69 -14z"/>
<path d="M3137 14043 c-4 -3 -7 -26 -7 -50 0 -43 6 -55 87 -173 9 -14 26 -36
38 -50 25 -29 45 -74 45 -99 0 -13 10 -20 31 -25 46 -9 49 -8 49 14 0 11 -4
20 -9 20 -17 0 -25 43 -22 122 2 52 -2 78 -10 84 -7 4 -15 2 -17 -4 -2 -7 -15
-12 -28 -12 -20 0 -24 5 -24 28 0 15 -14 55 -32 89 -30 56 -36 63 -64 63 -17
0 -34 -3 -37 -7z"/>
<path d="M3784 13740 c-17 -7 -22 -20 -27 -71 -3 -35 -1 -71 4 -81 7 -13 3
-20 -18 -30 -31 -15 -45 -58 -19 -58 9 0 16 -7 16 -15 0 -9 9 -15 23 -15 25 0
62 -36 77 -76 16 -42 40 -30 40 20 0 25 5 48 11 52 6 3 8 17 5 29 -3 13 -2 27
4 30 12 8 13 102 1 109 -5 4 -12 28 -16 55 -5 39 -11 50 -28 55 -29 8 -47 7
-73 -4z"/>
<path d="M3414 13567 c-7 -20 21 -57 43 -57 20 0 16 18 -12 47 -21 24 -25 25
-31 10z"/>
<path d="M3454 13434 c4 -16 15 -36 26 -44 10 -8 21 -25 24 -36 9 -29 41 -56
62 -52 10 1 21 15 27 31 8 24 4 32 -35 72 -28 28 -57 47 -78 51 -32 7 -33 7
-26 -22z"/>
<path d="M3668 13449 c-10 -5 -18 -19 -18 -29 0 -11 -5 -20 -11 -20 -6 0 -9
-8 -7 -17 2 -10 9 -18 16 -17 6 1 24 2 40 3 20 1 31 9 41 33 13 28 12 32 -4
45 -22 15 -34 16 -57 2z"/>
<path d="M2067 13332 c-11 -11 -17 -36 -17 -63 0 -69 -9 -87 -46 -101 -50 -18
-46 -28 17 -42 14 -3 31 -17 39 -31 8 -15 22 -25 36 -25 18 0 25 8 34 48 16
63 24 162 13 162 -5 0 -15 16 -22 35 -14 39 -30 44 -54 17z"/>
<path d="M1820 13297 c0 -16 68 -48 76 -36 3 5 0 18 -6 29 -12 23 -70 29 -70
7z"/>
<path d="M4440 11329 c-14 -25 -6 -49 15 -49 8 0 15 -4 15 -10 0 -5 9 -10 20
-10 15 0 20 7 20 29 0 53 -49 81 -70 40z"/>
<path d="M4592 11302 l-23 -24 20 -19 c12 -11 21 -24 21 -29 0 -6 9 -10 19
-10 15 0 19 7 19 35 0 19 -7 44 -16 54 -16 17 -18 17 -40 -7z"/>
<path d="M4633 11060 c-27 -11 -27 -15 -4 -55 23 -40 48 -44 61 -10 8 20 6 32
-6 50 -18 27 -19 28 -51 15z"/>
<path d="M3737 10946 c-9 -13 -23 -50 -32 -82 -9 -32 -25 -71 -36 -87 -23 -31
-18 -47 15 -47 17 0 26 -10 40 -49 9 -26 16 -52 14 -57 -5 -17 78 -83 123 -99
40 -14 113 -78 114 -99 0 -8 30 -24 49 -25 12 -1 -1 58 -16 77 -7 8 -31 26
-53 40 -22 14 -46 33 -53 43 -7 10 -28 21 -47 25 -42 8 -59 26 -53 59 4 16 1
25 -8 25 -22 0 -44 42 -44 85 0 22 7 78 15 125 8 47 15 86 15 88 0 1 -6 2 -14
2 -7 0 -21 -11 -29 -24z"/>
<path d="M4823 10498 c1 -61 17 -98 42 -98 19 0 45 40 45 69 0 16 6 32 13 34
9 4 9 6 -1 6 -7 1 -25 12 -40 26 -15 14 -35 25 -44 25 -14 0 -17 -9 -15 -62z"/>
<path d="M4040 10440 c0 -13 34 -30 59 -30 14 0 21 6 21 20 0 17 -7 20 -40 20
-22 0 -40 -4 -40 -10z"/>
<path d="M5080 10350 c0 -54 3 -65 25 -82 14 -11 25 -30 25 -43 0 -27 3 -30
48 -40 31 -6 32 -6 32 28 0 19 -7 40 -15 47 -8 7 -15 18 -15 24 0 6 -13 36
-28 66 -19 38 -34 56 -50 58 -21 3 -22 0 -22 -58z"/>
<path d="M6590 10270 c0 -11 5 -20 12 -20 6 0 19 -7 29 -16 33 -30 41 -9 10
24 -36 37 -51 41 -51 12z"/>
<path d="M17682 9429 c-12 -5 -25 -17 -28 -26 -3 -10 -10 -28 -16 -39 -7 -15
-7 -28 2 -43 6 -12 8 -30 5 -40 -7 -23 32 -35 78 -25 19 4 32 2 37 -6 4 -7 13
-9 19 -6 17 11 13 26 -7 26 -24 0 -82 29 -82 41 0 5 -7 9 -15 9 -19 0 -19 9 1
48 9 19 23 32 35 32 22 0 25 13 7 28 -8 6 -22 6 -36 1z"/>
<path d="M17767 9368 c6 -7 13 -25 17 -40 3 -16 11 -28 17 -28 6 0 8 7 5 16
-4 10 1 22 10 29 24 17 9 35 -28 35 -23 0 -28 -3 -21 -12z"/>
<path d="M19315 8873 c-22 -8 -78 -18 -124 -21 -59 -5 -86 -11 -89 -21 -8 -24
200 -9 265 19 84 36 38 56 -52 23z"/>
<path d="M19590 8851 c0 -33 11 -51 31 -51 23 0 26 25 4 34 -8 3 -15 12 -15
21 0 8 -4 15 -10 15 -5 0 -10 -9 -10 -19z"/>
<path d="M19620 8746 c0 -23 23 -56 39 -56 19 0 19 1 3 30 -14 25 -42 42 -42
26z"/>
<path d="M7552 8588 c2 -13 10 -23 18 -23 8 0 16 10 18 23 3 17 -2 22 -18 22
-16 0 -21 -5 -18 -22z"/>
<path d="M7051 8581 c-8 -5 -10 -18 -5 -34 9 -37 54 -39 54 -2 0 27 -29 48
-49 36z"/>
<path d="M7083 8498 c-18 -9 -23 -20 -23 -49 0 -55 8 -69 40 -69 32 0 43 -11
44 -49 1 -18 7 -27 22 -29 12 -2 26 -14 32 -28 13 -27 37 -32 46 -9 3 8 21 23
41 32 40 19 46 43 11 43 -15 0 -26 7 -29 20 -3 14 -14 20 -31 20 -21 0 -26 5
-26 24 0 13 6 27 13 30 6 4 2 4 -10 2 -19 -3 -22 1 -25 33 -3 34 -5 36 -43 38
-22 1 -50 -3 -62 -9z"/>
<path d="M13057 8349 c-3 -12 -1 -30 6 -40 15 -25 37 -6 37 32 0 22 -5 29 -19
29 -11 0 -21 -9 -24 -21z"/>
<path d="M7301 8251 c-20 -20 -26 -32 -19 -39 6 -6 17 -8 24 -5 10 4 12 0 8
-12 -6 -15 -3 -16 27 -10 44 10 54 26 29 47 -11 9 -20 21 -20 27 0 23 -21 20
-49 -8z"/>
<path d="M19700 8232 c0 -5 -12 -12 -27 -15 -76 -15 -127 -27 -131 -31 -2 -3
-6 -33 -9 -68 -5 -55 -3 -65 16 -82 11 -11 21 -25 21 -32 0 -22 21 -27 41 -8
10 9 19 27 19 39 0 12 13 40 28 61 54 74 73 126 52 139 -5 3 -10 2 -10 -3z"/>
<path d="M16150 8175 c0 -21 30 -31 41 -14 14 23 11 29 -16 29 -16 0 -25 -6
-25 -15z"/>
<path d="M16402 7675 c-17 -37 -15 -45 11 -45 32 0 36 6 28 37 -10 36 -25 39
-39 8z"/>
<path d="M4317 7033 c-8 -10 -19 -30 -22 -45 -8 -31 4 -35 49 -18 21 8 26 16
26 45 0 27 -4 35 -18 35 -11 0 -26 -8 -35 -17z"/>
<path d="M3519 6859 c-6 -31 -3 -41 17 -60 18 -16 24 -19 25 -8 1 8 3 24 4 37
1 12 -1 22 -6 22 -4 0 -14 3 -23 6 -9 3 -16 5 -17 3z"/>
<path d="M16760 6740 c-19 -16 -51 -32 -70 -35 -47 -9 -87 -31 -100 -55 -10
-18 -8 -20 23 -20 59 0 200 57 211 85 6 17 -9 55 -22 55 -4 0 -23 -14 -42 -30z"/>
<path d="M4191 6700 c-32 -27 -35 -50 -5 -50 8 0 14 -10 14 -25 0 -23 4 -25
41 -25 l42 0 -7 46 c-3 26 -6 55 -6 65 0 29 -39 23 -79 -11z"/>
<path d="M1808 6621 c-7 -12 -20 -21 -29 -21 -29 0 -30 -29 -3 -46 23 -15 26
-15 43 0 12 11 18 29 17 47 -3 39 -12 45 -28 20z"/>
</g>
</svg>
