<svg width="200" height="200" fill="#000000" xmlns="http://www.w3.org/2000/svg" data-name="Layer 2" viewBox="0 0 100 100" x="0px" y="0px"><title>ecology-and-environment2</title><path d="M11.74,35.89H30.29a1.5,1.5,0,0,0,0-3H11.74A1.5,1.5,0,1,0,11.74,35.89Z"/><path d="M92,74.07H83c-7-33.36-33.1-39.51-36.77-40.21V24.43a1.5,1.5,0,0,0-1.5-1.5H36.47a1.5,1.5,0,0,0-1.5,1.5v2.28H8a1.5,1.5,0,0,0-1.5,1.5V57.07A1.5,1.5,0,0,0,8,58.57H35v2.26a1.5,1.5,0,0,0,1.5,1.5h8.28a1.5,1.5,0,0,0,1.5-1.5v-1a23.83,23.83,0,0,1,9.06,14.21H28.22a1.5,1.5,0,0,0,0,3H92A1.5,1.5,0,0,0,92,74.07ZM35,55.57H9.49V29.71H35V55.57Zm8.28,1.21a1.49,1.49,0,0,0,0,.58v2H38V25.93h5.28V56.78ZM58.37,74.07A26.67,26.67,0,0,0,46.25,56.22V36.9C51,37.85,73.34,43.91,80,74.07H58.37Z"/><path d="M55,52.4a1.5,1.5,0,1,0-1.36,2.67A23.82,23.82,0,0,1,65.17,72.43a1.5,1.5,0,0,0,1.49,1.31h0.19A1.5,1.5,0,0,0,68.15,72,26.56,26.56,0,0,0,55,52.4Z"/></svg>