<svg width="200" height="200" fill="#000000" xmlns="http://www.w3.org/2000/svg" data-name="Layer 1" viewBox="0 0 100 100" x="0px" y="0px"><title>119all</title><path d="M58.95,52.53A8.95,8.95,0,1,0,50,61.47,9,9,0,0,0,58.95,52.53ZM50,54.47a1.95,1.95,0,1,1,1.95-1.95A1.95,1.95,0,0,1,50,54.47Z"/><path d="M28.77,19.79s0,0,0-.16v0h0v.18Z"/><path d="M40.24,40.1a2.26,2.26,0,0,0,2,1.11,2.19,2.19,0,0,0,1.1-.29,13.55,13.55,0,0,1,13.4,0,2.2,2.2,0,0,0,1.1.29,2.26,2.26,0,0,0,2-1.11L70.94,20.72a2.27,2.27,0,0,0-.82-3.05,40.54,40.54,0,0,0-40.19,0,2.25,2.25,0,0,0-1.17,2,2.34,2.34,0,0,0,.29,1.1ZM50,19.32a33.52,33.52,0,0,1,12.32,2.33L55.79,33a20.7,20.7,0,0,0-11.58,0L37.68,21.65A33.54,33.54,0,0,1,50,19.32Z"/><path d="M63.42,52.53A13.46,13.46,0,0,1,56.7,64.14a2.24,2.24,0,0,0-.82,3.05L67.07,86.57a2.27,2.27,0,0,0,3.06.82A40.4,40.4,0,0,0,90.26,52.53,2.24,2.24,0,0,0,88,50.29H65.66A2.24,2.24,0,0,0,63.42,52.53Zm19.49,4.76A33.44,33.44,0,0,1,70.58,78.64L64,67.33a20.54,20.54,0,0,0,5.8-10Z"/><path d="M29.78,87.33a2.12,2.12,0,0,0,1.18.35,2.28,2.28,0,0,0,2-1.11L44.11,67.19a2.24,2.24,0,0,0-.81-3.05l.14.08-.15-.09a13.46,13.46,0,0,1-6.72-11.61,2.24,2.24,0,0,0-2.24-2.24H12a2.24,2.24,0,0,0-2.24,2.24A40.4,40.4,0,0,0,29.78,87.33Zm.37-30a20.54,20.54,0,0,0,5.8,10L29.42,78.64A33.46,33.46,0,0,1,17.09,57.29Z"/></svg>